<?xml version="1.0" encoding="UTF-8" standalone="no"?><!DOCTYPE svg PUBLIC "-//W3C//DTD SVG 1.1//EN" "http://www.w3.org/Graphics/SVG/1.1/DTD/svg11.dtd"><svg width="100%" height="100%" viewBox="0 0 3652 2757" version="1.1" xmlns="http://www.w3.org/2000/svg" xmlns:xlink="http://www.w3.org/1999/xlink" xml:space="preserve" xmlns:serif="http://www.serif.com/" style="fill-rule:evenodd;clip-rule:evenodd;stroke-linejoin:round;stroke-miterlimit:2;"><path d="M2104.04,134.142c31.318,66.646 -35.045,85.524 -111.063,121.246c-76.019,35.721 -132.907,74.76 -164.225,8.114c-31.318,-66.647 -56.728,-198.928 50.814,-249.463c111.246,-52.275 193.156,53.456 224.474,120.103Z" style="fill:#2f2e41;fill-rule:nonzero;"/><circle cx="1948.94" cy="162.871" r="102.338" style="fill:#ffb8b8;"/><path d="M2455.94,616.718c-3.543,-4.625 -7.085,-9.167 -10.667,-13.583c-4.625,-5.75 -9.278,-11.32 -13.959,-16.709c-53.042,-61.208 -109.458,-99.75 -171.582,-103.875l-0.084,0l-0.917,-0.083l-123.792,120.667l-42.083,41l0.917,2.25l22.707,56.541l397.876,0c-17.928,-29.752 -37.428,-58.529 -58.417,-86.208Z" style="fill:#2f2e41;fill-rule:nonzero;"/><path d="M1837.66,204.072l36.633,-17.214l-5.103,-52.847l24.496,43.734l17.51,-8.228l-2.977,-30.827l14.29,25.511l130.102,-61.136c-25.276,-53.787 -90.334,-77.249 -144.121,-51.974l-18.856,8.86c-53.787,25.275 -77.249,90.334 -51.974,144.121Z" style="fill:#2f2e41;fill-rule:nonzero;"/><path d="M2685.53,2061.67l-2136.83,0c-37.699,-0.042 -68.707,-31.051 -68.75,-68.75l0,-1283.97c0.031,-27.619 22.748,-50.336 50.366,-50.368l2172.72,-0c28.097,0.032 51.207,23.142 51.238,51.239l0,1283.1c-0.042,37.699 -31.051,68.708 -68.75,68.75Z" style="fill:#f2f2f2;fill-rule:nonzero;"/><path d="M615.365,1992.92l2003.49,0c36.572,0 66.666,-30.094 66.666,-66.666l0,-1089.78c0,-36.572 -30.094,-66.667 -66.666,-66.667l-2003.49,0c-36.572,0 -66.667,30.095 -66.667,66.667l0,1089.78c0,36.572 30.095,66.666 66.667,66.666Z" style="fill:#fff;fill-rule:nonzero;"/><path d="M2753.32,705.011l-2274.34,-0l0,-35.002c0.055,-37.824 31.176,-68.926 69.001,-68.958l2136.33,0c37.824,0.032 68.946,31.133 69,68.958l0,35.002Z" style="fill:#da7319;fill-rule:nonzero;"/><circle cx="604.381" cy="653.135" r="17.848" style="fill:#fff;"/><circle cx="672.126" cy="653.135" r="17.848" style="fill:#fff;"/><circle cx="739.871" cy="653.135" r="17.848" style="fill:#fff;"/><path d="M1679.63,1756.58l-179.167,0c-21.705,-0.024 -39.558,-17.877 -39.583,-39.583l0,-179.166c0.025,-21.706 17.878,-39.559 39.583,-39.584l179.167,0c21.705,0.025 39.559,17.878 39.583,39.584l0,179.166c-0.024,21.706 -17.878,39.559 -39.583,39.583Zm-179.167,-249.999c-17.136,0.019 -31.231,14.113 -31.25,31.25l0,179.166c0.019,17.136 14.114,31.231 31.25,31.25l179.167,0c17.136,-0.019 31.231,-14.114 31.25,-31.25l0,-179.166c-0.019,-17.137 -14.114,-31.231 -31.25,-31.25l-179.167,-0Z" style="fill:#ccc;fill-rule:nonzero;"/><path d="M1644.21,1706.58l-108.333,0c-6.854,-0.007 -12.493,-5.645 -12.5,-12.5l0,-133.333c0.007,-6.854 5.646,-12.492 12.5,-12.5l78.497,0c2.847,0.003 5.61,0.975 7.831,2.757l29.834,23.975c2.959,2.364 4.68,5.955 4.671,9.743l0,109.359c-0.007,6.854 -5.645,12.492 -12.5,12.5Zm-108.333,-150c-2.285,0.002 -4.164,1.882 -4.167,4.166l0,133.334c0.003,2.284 1.882,4.163 4.167,4.166l108.333,0c2.285,-0.003 4.164,-1.882 4.167,-4.166l0,-109.359c0.003,-1.262 -0.571,-2.459 -1.556,-3.247l-29.838,-23.977c-0.74,-0.593 -1.661,-0.917 -2.609,-0.917l-78.497,-0Z" style="fill:#ccc;fill-rule:nonzero;"/><path d="M1623.38,1606.58l-66.667,0c-2.285,0 -4.166,-1.88 -4.166,-4.166c-0,-2.286 1.881,-4.167 4.166,-4.167l66.667,0c2.286,0 4.167,1.881 4.167,4.167c-0,2.286 -1.881,4.166 -4.167,4.166Z" style="fill:#ccc;fill-rule:nonzero;"/><path d="M1623.38,1631.58l-66.667,0c-2.285,0 -4.166,-1.88 -4.166,-4.166c-0,-2.286 1.881,-4.167 4.166,-4.167l66.667,0c2.286,0 4.167,1.881 4.167,4.167c-0,2.286 -1.881,4.166 -4.167,4.166Z" style="fill:#ccc;fill-rule:nonzero;"/><path d="M1623.38,1656.58l-66.667,0c-2.285,0 -4.166,-1.88 -4.166,-4.166c-0,-2.286 1.881,-4.167 4.166,-4.167l66.667,0c2.286,0 4.167,1.881 4.167,4.167c-0,2.286 -1.881,4.166 -4.167,4.166Z" style="fill:#ccc;fill-rule:nonzero;"/><path d="M2104.63,1756.58l-179.167,0c-21.705,-0.024 -39.558,-17.877 -39.583,-39.583l0,-179.166c0.025,-21.706 17.878,-39.559 39.583,-39.584l179.167,0c21.705,0.025 39.559,17.878 39.583,39.584l0,179.166c-0.024,21.706 -17.878,39.559 -39.583,39.583Zm-179.167,-249.999c-17.136,0.019 -31.231,14.113 -31.25,31.25l0,179.166c0.019,17.136 14.114,31.231 31.25,31.25l179.167,0c17.136,-0.019 31.231,-14.114 31.25,-31.25l0,-179.166c-0.019,-17.137 -14.114,-31.231 -31.25,-31.25l-179.167,-0Z" style="fill:#ccc;fill-rule:nonzero;"/><path d="M2073.38,1673.25l-116.667,0c-6.854,-0.007 -12.492,-5.645 -12.5,-12.5l0,-66.667c0.008,-6.854 5.646,-12.492 12.5,-12.5l116.667,0c6.854,0.008 12.493,5.646 12.5,12.5l0,66.667c-0.007,6.855 -5.646,12.493 -12.5,12.5Zm-116.667,-83.333c-2.285,0.002 -4.164,1.882 -4.166,4.167l-0,66.666c0.002,2.285 1.881,4.165 4.166,4.167l116.667,-0c2.285,-0.002 4.164,-1.882 4.167,-4.167l-0,-66.666c-0.003,-2.285 -1.882,-4.165 -4.167,-4.167l-116.667,-0Z" style="fill:#ccc;fill-rule:nonzero;"/><path d="M2015.04,1638.4c-2.341,0.004 -4.637,-0.65 -6.625,-1.886l-62.251,-38.906c-1.213,-0.761 -1.952,-2.097 -1.952,-3.529c0,-2.287 1.882,-4.168 4.168,-4.168c0.778,0 1.542,0.218 2.202,0.63l62.252,38.905c1.35,0.837 3.065,0.837 4.415,0l62.248,-38.905c0.661,-0.412 1.424,-0.63 2.202,-0.63c2.287,0 4.168,1.881 4.168,4.168c0,1.432 -0.738,2.768 -1.951,3.529l-62.248,38.906c-1.989,1.237 -4.286,1.89 -6.628,1.886Z" style="fill:#ccc;fill-rule:nonzero;"/><path d="M1254.63,1756.58l-179.167,0c-21.705,-0.024 -39.558,-17.877 -39.583,-39.583l0,-179.166c0.025,-21.706 17.878,-39.559 39.583,-39.584l179.167,0c21.705,0.025 39.559,17.878 39.583,39.584l0,179.166c-0.024,21.706 -17.878,39.559 -39.583,39.583Zm-179.167,-249.999c-17.136,0.019 -31.231,14.113 -31.25,31.25l0,179.166c0.019,17.136 14.114,31.231 31.25,31.25l179.167,0c17.136,-0.019 31.231,-14.114 31.25,-31.25l0,-179.166c-0.019,-17.137 -14.114,-31.231 -31.25,-31.25l-179.167,-0Z" style="fill:#ccc;fill-rule:nonzero;"/><path d="M1223.38,1673.25l-116.667,0c-6.854,-0.007 -12.492,-5.645 -12.5,-12.5l0,-66.667c0.008,-6.854 5.646,-12.492 12.5,-12.5l116.667,0c6.854,0.008 12.493,5.646 12.5,12.5l0,66.667c-0.007,6.855 -5.646,12.493 -12.5,12.5Zm-116.667,-83.333c-2.285,0.002 -4.164,1.882 -4.166,4.167l-0,66.666c0.002,2.285 1.881,4.165 4.166,4.167l116.667,-0c2.285,-0.002 4.164,-1.882 4.167,-4.167l-0,-66.666c-0.003,-2.285 -1.882,-4.165 -4.167,-4.167l-116.667,-0Z" style="fill:#ccc;fill-rule:nonzero;"/><path d="M1204.88,1673.25c0,0 -83.851,0 -83.852,0c-4.571,0 -8.332,-3.761 -8.332,-8.331c0,-1.464 0.386,-2.902 1.118,-4.169l25.256,-43.75c1.487,-2.575 4.244,-4.166 7.218,-4.166c2.973,-0 5.73,1.591 7.217,4.166l16.313,28.255l9.45,-16.369c1.487,-2.575 4.244,-4.167 7.217,-4.167c2.974,0 5.731,1.592 7.218,4.167l18.396,31.864c0.731,1.267 1.116,2.704 1.116,4.167c-0,4.571 -3.762,8.333 -8.333,8.333c-0.001,0 -0.001,0 -0.002,0l0,0Zm0,-8.333l-18.395,-31.865l-13.058,22.62c-0.743,1.288 -2.122,2.084 -3.609,2.083c-1.487,0.001 -2.866,-0.795 -3.609,-2.083l-19.92,-34.505l-25.259,43.75l83.85,-0Z" style="fill:#ccc;fill-rule:nonzero;"/><circle cx="1210.88" cy="1606.58" r="8.333" style="fill:#ccc;"/><path d="M3203.44,2700.62l-51.084,-0.004l-24.3,-197.034l75.392,0.005l-0.008,197.033Z" style="fill:#ffb8b8;fill-rule:nonzero;"/><path d="M3216.46,2750.14l-164.71,-0.006c0,0 -0,-2.084 -0,-2.084c-0,-35.169 28.94,-64.109 64.109,-64.109c0,0 100.605,0.005 100.605,0.005l-0.004,66.194Z" style="fill:#2f2e41;fill-rule:nonzero;"/><path d="M3411.77,2700.62l-51.083,-0.004l-24.301,-197.034l75.392,0.005l-0.008,197.033Z" style="fill:#ffb8b8;fill-rule:nonzero;"/><path d="M3424.8,2750.14l-164.711,-0.006c0,0 0,-2.084 0,-2.084c0,-35.169 28.94,-64.109 64.109,-64.109c0,0 100.605,0.005 100.605,0.005l-0.003,66.194Z" style="fill:#2f2e41;fill-rule:nonzero;"/><path d="M3396.46,2615.21l-47.31,-14.392c-7.196,-2.181 -12.409,-8.493 -13.191,-15.971l-44.108,-418.026c-0.071,-1.043 -0.948,-1.863 -1.994,-1.864c-1.047,-0.1 -1.997,0.662 -2.127,1.705l-73.879,404.997c-1.62,8.874 -9.426,15.384 -18.447,15.384c-1.27,-0 -2.537,-0.129 -3.781,-0.386l-60.464,-12.455c-9.126,-1.909 -15.526,-10.328 -14.924,-19.633l44.939,-663.802l304.741,-32.882l-45.283,740.528c-0.605,9.824 -8.842,17.589 -18.685,17.615c-1.859,-0.001 -3.708,-0.277 -5.487,-0.818Z" style="fill:#2f2e41;fill-rule:nonzero;"/><circle cx="3396.17" cy="1210.36" r="102.338" style="fill:#ffb8b8;"/><path d="M3160.7,1894.66l66.075,-416.046c12.116,-76.274 78.556,-132.994 155.787,-132.994c14.971,0 29.866,2.132 44.236,6.33c77.49,22.412 125.809,100.995 110.838,180.259l-69.13,371.55l-307.806,-9.099Z" style="fill:#da7319;fill-rule:nonzero;"/><path d="M3424.42,1969.11c11.734,-7.748 18.812,-20.904 18.812,-34.965c-0,-10.742 -4.131,-21.083 -11.533,-28.869l68.318,-132.297l-76.937,8.211l-53.08,124.373c-7.165,7.775 -11.145,17.971 -11.145,28.544c-0,23.11 19.016,42.126 42.126,42.126c8.345,0 16.505,-2.48 23.439,-7.123l0,-0Z" style="fill:#ffb8b8;fill-rule:nonzero;"/><path d="M3439.05,1881.94c-3.779,-0.534 -7.306,-2.207 -10.11,-4.795l-26.139,-24.153c-5.771,-5.358 -7.594,-13.797 -4.549,-21.059l52.239,-123.826l-7.41,-244.665c4.038,-29.815 29.768,-52.295 59.855,-52.295c33.136,0 60.402,27.267 60.402,60.403c0,2.749 -0.187,5.495 -0.561,8.219l12.67,153.801c3.852,46.666 -9.389,93.178 -37.24,130.82l-81.467,110.135c-3.169,4.279 -8.013,7.013 -13.313,7.516c-1.458,0.139 -2.927,0.105 -4.377,-0.101Z" style="fill:#da7319;fill-rule:nonzero;"/><path d="M2806.84,1154.61c3.662,19.782 21.081,34.271 41.199,34.271c5.036,0 10.031,-0.908 14.745,-2.68l95.19,114.493l22.437,-74.05l-93.834,-97.371c-6.817,-15.029 -21.863,-24.726 -38.365,-24.726c-23.11,-0 -42.126,19.016 -42.126,42.126c-0,2.663 0.252,5.321 0.754,7.937Z" style="fill:#ffb8b8;fill-rule:nonzero;"/><path d="M2881.4,1202.06c1.964,-3.272 4.88,-5.868 8.357,-7.441l32.433,-14.653c7.183,-3.225 15.666,-1.613 21.166,4.022l93.658,96.384l228.193,88.569c18.333,10.863 29.61,30.654 29.61,51.964c0,33.136 -27.266,60.402 -60.402,60.402c-10.881,0 -21.563,-2.94 -30.912,-8.509l-146.569,-48.298c-44.475,-14.648 -82.144,-44.976 -105.948,-85.299l-69.655,-117.96c-2.705,-4.587 -3.335,-10.113 -1.731,-15.19c0.441,-1.397 1.045,-2.737 1.8,-3.991Z" style="fill:#da7319;fill-rule:nonzero;"/><path d="M3479.18,1565.22l-4.167,133.333l-76.758,133.379l64.092,-148.637l16.833,-118.075Z" style="fill-opacity:0.1;fill-rule:nonzero;"/><path d="M3384.44,1229.59c-13.232,1.72 -25.831,-6.706 -29.294,-19.592c-3.301,-14.66 -14.466,-26.344 -28.961,-30.307c-18.773,-4.289 -41.718,4.547 -55.473,-9.676c-5.97,-6.582 -8.416,-15.653 -6.564,-24.343c2.533,-13.822 12.42,-24.264 23.18,-32.615c22.639,-17.49 50.047,-27.733 78.608,-29.378c14.787,-0.428 29.583,0.308 44.254,2.202c15.361,0.969 30.554,3.746 45.265,8.272c34.025,12.84 59.211,42.242 66.674,77.835c6.802,35.575 -2.441,72.397 -25.238,100.543c-13.49,16.798 -30.887,30.044 -50.669,38.578c-4.71,2.224 -10.114,2.498 -15.026,0.762c-12.322,-4.899 -10.308,-20.163 -4.69,-30.344c6.012,-10.895 15.264,-21.443 10.428,-34.702c-2.422,-6.147 -7.078,-11.158 -13.029,-14.026c-12.25,-6.247 -25.951,-4.769 -39.12,-3.249l-0.345,0.04Z" style="fill:#2f2e41;fill-rule:nonzero;"/><path d="M2772.64,1287.39l-1266.67,0c-37.699,-0.043 -68.708,-31.051 -68.75,-68.75l-0,-270.833c0.042,-37.699 31.051,-68.708 68.75,-68.75l1266.67,-0c37.698,0.043 68.706,31.051 68.75,68.75l-0,270.833c-0.044,37.699 -31.052,68.707 -68.75,68.75Z" style="fill:#fff;fill-rule:nonzero;"/><path d="M2772.64,1289.47l-1266.67,-0c-38.841,-0.044 -70.789,-31.992 -70.833,-70.833l-0,-270.834c0.043,-38.841 31.992,-70.789 70.833,-70.833l1266.67,-0c38.841,0.044 70.789,31.992 70.833,70.833l0,270.834c-0.044,38.841 -31.992,70.789 -70.833,70.833Zm-1266.67,-404.167c-34.272,0.039 -62.461,28.228 -62.5,62.5l0,270.834c0.039,34.271 28.228,62.461 62.5,62.5l1266.67,-0c34.272,-0.039 62.461,-28.229 62.5,-62.5l-0,-270.834c-0.039,-34.272 -28.228,-62.461 -62.5,-62.5l-1266.67,0Z" style="fill:#3f3d56;fill-rule:nonzero;"/><path d="M2618.47,1220.72l-958.333,-0c-37.699,-0.043 -68.708,-31.051 -68.75,-68.75l-0,-141.667c0.042,-37.699 31.051,-68.707 68.75,-68.75l958.333,0c37.699,0.043 68.708,31.051 68.75,68.75l0,141.667c-0.042,37.699 -31.051,68.707 -68.75,68.75Z" style="fill:#f2f2f2;fill-rule:nonzero;"/><circle cx="1866.37" cy="1062.14" r="82.218" style="fill:#ff6584;"/><path d="M2558.92,1212.42l-116.052,-97.332l-114.048,-95.652c-6.189,-5.189 -15.303,-5.172 -21.471,0.042l-113.68,96.09l-27.767,23.472l-41.868,-35.114l-127.238,-106.712c-6.187,-5.189 -15.3,-5.172 -21.468,0.041l-126.825,107.202l-128.821,108.889c-0.936,0.792 -1.477,1.957 -1.477,3.183c0,2.285 1.881,4.166 4.166,4.166c0.003,0 0.006,0 0.009,0l264.112,-0.509l83.6,-0.161l-0.818,0.692l249.198,-0.48l237.779,-0.458c2.283,-0.004 4.159,-1.883 4.159,-4.166c0,-1.232 -0.546,-2.402 -1.49,-3.193Z" style="fill:#3f3d56;fill-rule:nonzero;"/><path d="M3646.97,2756.14l-800,-0c-2.286,-0 -4.166,-1.881 -4.166,-4.167c-0,-2.286 1.88,-4.167 4.166,-4.167l800,0c2.286,0 4.167,1.881 4.167,4.167c-0,2.286 -1.881,4.167 -4.167,4.167Z" style="fill:#ccc;fill-rule:nonzero;"/><path d="M2516.9,549.635c-6.723,-10.925 -17.654,-18.614 -30.208,-21.25c-2.278,-0.479 -4.59,-0.772 -6.915,-0.876l-317.46,-283.833c-6.235,-6.407 -14.556,-10.384 -23.458,-11.208c-1.756,-0.202 -3.526,-0.258 -5.292,-0.167c-20.031,0.91 -36.016,17.638 -36.016,37.69c-0,10.067 4.029,19.727 11.183,26.81l121.541,105.958l199.583,173.959c0.164,3.276 0.653,6.528 1.459,9.708c4.88,18.818 20.968,32.743 40.291,34.875c8.627,1.008 17.366,-0.437 25.21,-4.166c6.219,-2.909 11.734,-7.131 16.166,-12.375c0.458,-0.542 0.875,-1.042 1.292,-1.625c11.903,-15.512 12.952,-36.898 2.624,-53.5l0,-0Z" style="fill:#ffb8b8;fill-rule:nonzero;"/><path d="M1973.9,823.176l-2.958,-120.25l-2.501,-99.791l-1.709,-69.834l-3.375,-136.125c-1.768,-19.301 -18.151,-34.252 -37.533,-34.252c-10.633,-0 -20.784,4.499 -27.925,12.377c-1.157,1.239 -2.203,2.578 -3.125,4c-5.128,7.345 -7.437,16.3 -6.5,25.209l7.417,198.625l3.709,99.791l4.749,127.292c-1.37,1.87 -2.609,3.833 -3.707,5.875c-5.986,11.349 -7.057,24.674 -2.958,36.833c6.423,19.156 24.481,32.148 44.685,32.148c6.967,-0 13.848,-1.545 20.146,-4.523c16.434,-7.77 26.96,-24.39 26.96,-42.568c-0,-13.242 -5.586,-25.889 -15.375,-34.807l0,0Z" style="fill:#ffb8b8;fill-rule:nonzero;"/><path d="M2259.74,482.551l-29.46,-79.791l-47.666,-129.25c-6.962,-19.038 -22.238,-33.898 -41.459,-40.334c-0.749,-0.25 -1.541,-0.5 -2.291,-0.708c-18.603,-5.647 -38.776,-2.874 -55.166,7.583l-160.543,101.833c-30.376,19.224 -40.166,59.63 -21.958,90.625c20.077,34.716 41.954,68.359 65.542,100.792c18.709,25.458 53.542,28.167 59.584,69.833l118.374,0l119.834,-107.583l-4.791,-13Z" style="fill:#ccc;fill-rule:nonzero;"/><circle cx="421.519" cy="1361.18" r="96.549" style="fill:#a0616a;"/><path d="M658.547,1294.72c0.952,0.757 1.874,1.56 2.767,2.408c8.672,8.169 13.594,19.569 13.594,31.482c0,12.724 -5.614,24.82 -15.332,33.033c-1.085,0.911 -2.217,1.764 -3.391,2.556l6.534,220.604c0.381,14.787 -9.049,28.167 -23.104,32.779l-0.398,0.086l-179.12,19.075c-1.302,0.138 -2.611,0.208 -3.92,0.208c-20.34,-0 -37.078,-16.738 -37.078,-37.078c0,-19.114 14.782,-35.256 33.823,-36.934l127.684,-11.245l22.082,-191.046c-1.444,-1.278 -2.797,-2.657 -4.048,-4.125c-6.594,-7.804 -10.214,-17.697 -10.214,-27.913c0,-23.726 19.524,-43.25 43.25,-43.25c9.755,-0 19.228,3.3 26.871,9.36l0,0Z" style="fill:#a0616a;fill-rule:nonzero;"/><path d="M580.533,2704.89l48.196,-0l22.925,-185.888l-71.129,0l0.008,185.888Z" style="fill:#a0616a;fill-rule:nonzero;"/><path d="M568.242,2689.16c0,-0 94.914,-0.004 94.914,-0.004c33.18,-0 60.482,27.302 60.482,60.482c0,0 0,1.966 0,1.966l-155.393,0.006l-0.003,-62.45Z" style="fill:#2f2e41;fill-rule:nonzero;"/><path d="M101.525,2638.26l41.408,24.655l114.805,-147.988l-61.117,-36.388l-95.096,159.721Z" style="fill:#a0616a;fill-rule:nonzero;"/><path d="M99.012,2618.45l81.549,48.554l0.003,0.002c18.295,10.893 29.54,30.675 29.54,51.968c-0,10.892 -2.943,21.585 -8.516,30.944l-1.005,1.689l-133.519,-79.497l31.948,-53.66Z" style="fill:#2f2e41;fill-rule:nonzero;"/><path d="M640.1,2639.24l-53.966,-0c-9.005,0.014 -16.652,-6.863 -17.589,-15.82l-54.405,-511.406c-0.318,-2.983 -2.864,-5.272 -5.864,-5.272c-2.313,0 -4.422,1.361 -5.374,3.468l-98.148,217.328l-173.765,283.345c-4.628,7.475 -14.142,10.448 -22.204,6.94l-69.417,-30.541c-6.409,-2.822 -10.565,-9.193 -10.565,-16.195c0,-3.194 0.865,-6.33 2.503,-9.073l159.738,-267.467l48.99,-225.355c-15.408,-97.729 50.646,-243.025 51.316,-244.484l0.327,-0.71l181.948,-71.115l0.913,1.117c71.754,235.474 115.479,488.884 83.194,869.033c-0.821,9.091 -8.504,16.153 -17.632,16.207Z" style="fill:#2f2e41;fill-rule:nonzero;"/><path d="M384.347,1847.81l-0.848,-1.781c-0.405,-0.852 -40.862,-86.182 -72.05,-177.381c-12.112,-35.64 -8.726,-74.776 9.328,-107.806c18.288,-33.371 49.77,-57.58 86.719,-66.684c65.314,-15.655 132.942,19.239 158.032,81.54c24.739,61.863 16.855,127.894 9.435,179.822l-0.148,1.04l-0.946,0.453l-189.522,90.797Z" style="fill:#3f3d56;fill-rule:nonzero;"/><path d="M538.582,1306.64l-153.308,0l-0,-66.826c33.649,-13.369 66.577,-24.738 86.481,-0c36.66,-0 66.826,30.166 66.827,66.826l-0,0Z" style="fill:#2f2e41;fill-rule:nonzero;"/><path d="M376.786,1228.02c-91.65,-0 -117.303,114.88 -117.303,179.689c0,36.144 16.346,49.071 42.031,53.445l9.072,-48.379l21.246,50.461c7.215,0.036 14.794,-0.104 22.653,-0.249l7.203,-14.833l16.064,14.566c64.337,0.096 116.336,9.475 116.336,-55.011c-0,-64.809 -22.498,-179.689 -117.302,-179.689Z" style="fill:#2f2e41;fill-rule:nonzero;"/><path d="M804.167,2756.14l-800,-0c-2.286,-0 -4.167,-1.881 -4.167,-4.167c-0,-2.286 1.881,-4.167 4.167,-4.167l800,0c2.285,0 4.166,1.881 4.166,4.167c0,2.286 -1.881,4.167 -4.166,4.167Z" style="fill:#ccc;fill-rule:nonzero;"/><path d="M819.209,1385.3l-179.166,0c-21.706,-0.024 -39.559,-17.878 -39.584,-39.583l0,-179.167c0.025,-21.705 17.878,-39.558 39.584,-39.583l179.166,-0c21.706,0.025 39.559,17.878 39.584,39.583l-0,179.167c-0.025,21.705 -17.878,39.559 -39.584,39.583Z" style="fill:#fff;fill-rule:nonzero;"/><path d="M819.209,1385.3l-179.166,0c-21.706,-0.024 -39.559,-17.878 -39.584,-39.583l0,-179.167c0.025,-21.705 17.878,-39.558 39.584,-39.583l179.166,-0c21.706,0.025 39.559,17.878 39.584,39.583l-0,179.167c-0.025,21.705 -17.878,39.559 -39.584,39.583Zm-179.166,-250c-17.136,0.019 -31.231,14.114 -31.25,31.25l-0,179.167c0.019,17.136 14.114,31.231 31.25,31.25l179.166,-0c17.136,-0.019 31.231,-14.114 31.25,-31.25l0,-179.167c-0.019,-17.136 -14.114,-31.231 -31.25,-31.25l-179.166,0Z" style="fill:#3f3d56;fill-rule:nonzero;"/><path d="M787.959,1312.39l-116.666,-0c-6.855,-0.008 -12.493,-5.646 -12.5,-12.5l-0,-87.5c0.007,-6.855 5.645,-12.493 12.5,-12.5l32.843,-0c4.339,-0.016 8.384,2.243 10.646,5.946l9.16,14.887l64.017,-0c6.855,0.007 12.493,5.645 12.5,12.5l0,66.667c-0.007,6.854 -5.645,12.492 -12.5,12.5Z" style="fill:#da7319;fill-rule:nonzero;"/><path d="M784.164,1356.59c0.583,1.067 1.122,2.165 1.616,3.293c2.44,5.514 3.701,11.478 3.701,17.508c0,18.86 -12.337,35.647 -30.338,41.278c-1.353,0.418 -2.727,0.765 -4.116,1.04l-79.581,205.853c-5.387,13.776 -19.271,22.448 -34.014,21.245l-0.4,-0.075l-172.486,-51.926c-15.621,-4.703 -26.388,-19.189 -26.388,-35.503c-0,-20.34 16.737,-37.077 37.077,-37.077c3.848,-0 7.673,0.599 11.336,1.775l122.043,39.183l94.485,-167.507c-0.835,-1.739 -1.547,-3.534 -2.13,-5.373c-1.306,-4.177 -1.97,-8.528 -1.97,-12.905c-0,-23.726 19.524,-43.25 43.25,-43.25c15.766,-0 30.33,8.62 37.916,22.441l-0.001,0Z" style="fill:#a0616a;fill-rule:nonzero;"/></svg>